<?xml version="1.0" encoding="UTF-8"?>
<svg version="1.1" xmlns="http://www.w3.org/2000/svg" width="2756" height="458">
<path d="M0 0 C0.7507782 -0.00974854 1.5015564 -0.01949707 2.27508545 -0.02954102 C18.8265956 -0.20025874 34.79685776 -0.1047202 50.8984375 4.23828125 C51.589375 4.4202002 52.2803125 4.60211914 52.9921875 4.78955078 C71.66856412 9.89181285 88.97618675 19.90461345 102.8984375 33.23828125 C104.04119141 34.26888672 104.04119141 34.26888672 105.20703125 35.3203125 C118.8510507 48.06576568 127.88132803 66.68087408 129.8984375 85.23828125 C129.8984375 88.20828125 129.8984375 91.17828125 129.8984375 94.23828125 C116.0384375 94.23828125 102.1784375 94.23828125 87.8984375 94.23828125 C85.9184375 86.81328125 85.9184375 86.81328125 83.8984375 79.23828125 C75.9888641 62.13152948 63.19637935 52.08207705 45.8984375 45.23828125 C20.30163447 36.11792503 -9.80239208 36.77711129 -34.70703125 47.83984375 C-50.29952869 55.84630785 -60.26195608 66.1713439 -66.3515625 82.61328125 C-68.90197569 94.94027834 -68.95663044 107.56840741 -62.703125 118.83203125 C-51.91630783 135.03856631 -34.54497476 143.66289898 -16.5390625 149.58984375 C-15.18345467 150.03851303 -15.18345467 150.03851303 -13.80046082 150.49624634 C-4.12865394 153.64022686 5.67694782 156.23772967 15.51364136 158.80776978 C84.82791356 176.98096631 84.82791356 176.98096631 110.8984375 202.23828125 C111.50816406 202.77453125 112.11789063 203.31078125 112.74609375 203.86328125 C127.72673065 217.5130643 134.15978668 238.00863808 135.18359375 257.7265625 C136.01671387 285.09500309 126.67290058 308.5840915 108.47265625 328.953125 C94.7040421 343.49686113 77.0582649 352.6255573 58.0859375 358.55078125 C57.36575439 358.78120117 56.64557129 359.01162109 55.90356445 359.24902344 C40.03888723 363.88735989 23.57361221 364.79293173 7.1484375 364.67578125 C5.78078247 364.67121918 5.78078247 364.67121918 4.38549805 364.66656494 C-31.80161996 364.48868105 -66.63202837 355.78089005 -93.3515625 330.015625 C-110.36976805 312.82820434 -120.1015625 290.44044448 -120.1015625 266.23828125 C-105.5815625 266.23828125 -91.0615625 266.23828125 -76.1015625 266.23828125 C-74.1015625 273.23828125 -74.1015625 273.23828125 -73.2421875 276.37890625 C-68.3233088 293.55183364 -59.77000129 304.54327836 -44.1015625 313.23828125 C-18.0521377 327.01109937 14.87330641 327.92713846 42.81762695 319.5949707 C54.34793164 315.90021801 64.77698387 310.19261975 73.8984375 302.23828125 C74.51203125 301.71878906 75.125625 301.19929688 75.7578125 300.6640625 C86.9191238 290.4657847 91.24910698 276.80259816 91.9609375 262.12109375 C91.76163798 249.73961093 88.2295716 239.59792373 79.7734375 230.61328125 C67.7572979 219.24826252 52.42051567 213.62063725 36.9921875 208.48828125 C35.4347155 207.9699044 35.4347155 207.9699044 33.84577942 207.4410553 C20.75745853 203.13913701 7.4939927 199.45176674 -5.76977539 195.7355957 C-40.8276143 185.88955347 -81.86541874 172.939231 -101.4140625 139.36328125 C-112.51493753 119.42207302 -113.93281207 95.35546714 -108.1015625 73.48828125 C-99.53196801 45.97537264 -80.60822698 27.00842705 -55.62597656 13.87426758 C-38.49152761 5.19515147 -19.22587013 0.20852474 0 0 Z " fill="#FEFEFE" transform="translate(120.1015625,-0.23828125)"/>
<path d="M0 0 C0.66 0 1.32 0 2 0 C11.20818756 23.48395711 20.39179784 46.97706149 29.5 70.5 C35.63559997 86.34560262 41.79951807 102.17967268 48 118 C54.60395968 134.84978762 61.16286579 151.71657348 67.69775391 168.59326172 C73.43478752 183.40749499 79.20304664 198.20911557 85 213 C92.04161683 230.96711157 99.03551668 248.95231429 106 266.94946289 C109.86156108 276.92526233 113.7369004 286.89523999 117.6484375 296.8515625 C118.3898303 298.74112206 119.13120439 300.63068897 119.87255859 302.52026367 C121.24875304 306.02736374 122.62997977 309.53242244 124.01416016 313.03637695 C124.63463107 314.61662425 125.25492136 316.19694248 125.875 317.77734375 C126.14911713 318.46684113 126.42323425 319.1563385 126.70565796 319.86672974 C128.79346216 325.20730581 130.33577649 330.45258829 132 336 C89.76 336 47.52 336 4 336 C-3.26 316.53 -10.52 297.06 -18 277 C-21.74197332 267.03851243 -25.48701398 257.07851175 -29.25 247.125 C-30.18291153 244.65459058 -31.11571865 242.18414206 -32.04833984 239.71362305 C-32.53329391 238.42900057 -33.01824875 237.14437838 -33.50320435 235.85975647 C-33.74612339 235.21626818 -33.98904243 234.57277988 -34.23932266 233.90979195 C-34.97289425 231.96674751 -35.70662976 230.02376503 -36.44039917 228.08079529 C-39.93530137 218.82571193 -43.42345361 209.56809887 -46.90856934 200.30932617 C-47.77440058 198.00916024 -48.64035407 195.70904037 -49.50634766 193.40893555 C-50.08203167 191.87988297 -50.65771527 190.35083024 -51.23339844 188.82177734 C-51.65934422 187.69044184 -51.65934422 187.69044184 -52.09389496 186.53625107 C-53.73199937 182.18514642 -55.36946644 177.8338027 -57.00640106 173.48225784 C-58.03424818 170.750633 -59.06309466 168.01938488 -60.09188843 165.28811646 C-60.84562235 163.28531526 -61.59757664 161.28185241 -62.34936523 159.27832031 C-64.77590946 152.82240034 -67.23254395 146.38042442 -69.7568531 139.96200657 C-70.9909874 136.82336309 -72.21659782 133.68141481 -73.44236374 130.53949547 C-74.0329916 129.03394723 -74.62825522 127.5302085 -75.22838211 126.0284214 C-76.05993124 123.9472838 -76.87586358 121.86061715 -77.68896484 119.7722168 C-78.16006683 118.58283005 -78.63116882 117.3934433 -79.11654663 116.16801453 C-80.04202414 112.84930377 -80.08256529 111.22968149 -79 108 C-77.66677737 105.85638715 -76.32148949 103.88610663 -74.8125 101.875 C-74.37325195 101.27518311 -73.93400391 100.67536621 -73.48144531 100.05737305 C-72.5138267 98.73866714 -71.54211115 97.42296023 -70.56689453 96.10986328 C-68.94163781 93.92141383 -67.32727598 91.7252565 -65.71484375 89.52734375 C-62.7557138 85.49772861 -59.78644466 81.47570149 -56.81445312 77.45556641 C-53.87205315 73.47350788 -50.9362956 69.48656062 -48 65.5 C-46.83336666 63.91664211 -45.66669996 62.3333088 -44.5 60.75 C-43.9225 59.96625 -43.345 59.1825 -42.75 58.375 C-41 56 -39.25 53.625 -37.5 51.25 C-36.92233887 50.4660083 -36.34467773 49.6820166 -35.74951172 48.87426758 C-34.58456151 47.29331017 -33.41952266 45.71241808 -32.25439453 44.1315918 C-29.3107302 40.13744172 -26.36868654 36.1421157 -23.4296875 32.14453125 C-22.24491385 30.53376429 -21.06001902 28.92308646 -19.875 27.3125 C-19.30177002 26.53334229 -18.72854004 25.75418457 -18.13793945 24.95141602 C-13.68065798 18.9022935 -9.17964975 12.88685405 -4.64208984 6.89770508 C-2.10450161 3.58772061 -2.10450161 3.58772061 0 0 Z " fill="#035026" transform="translate(1336,21)"/>
<path d="M0 0 C27.15409531 23.74437214 40.95871473 57.11867968 44.125 92.625 C44.28237878 95.77224067 44.33411014 98.91559656 44.36328125 102.06640625 C44.37302979 102.9436586 44.38277832 103.82091095 44.39282227 104.7247467 C44.55743597 123.36138401 44.65228965 141.42656043 40.125 159.625 C39.85212158 160.77645508 39.85212158 160.77645508 39.57373047 161.95117188 C32.31996451 191.8478373 14.9924278 219.75485886 -11.28710938 236.38061523 C-36.28504422 251.54313267 -66.85578817 255.66913015 -95.23828125 248.8125 C-113.95060706 243.53522833 -128.38601127 231.61957842 -139.3125 215.8125 C-139.85326172 215.05001953 -140.39402344 214.28753906 -140.95117188 213.50195312 C-144.875 207.89152378 -144.875 207.89152378 -144.875 205.625 C-146.195 205.625 -147.515 205.625 -148.875 205.625 C-148.875 251.825 -148.875 298.025 -148.875 345.625 C-162.405 345.625 -175.935 345.625 -189.875 345.625 C-189.875 225.175 -189.875 104.725 -189.875 -19.375 C-176.675 -19.375 -163.475 -19.375 -149.875 -19.375 C-149.875 -5.515 -149.875 8.345 -149.875 22.625 C-144.38875914 20.43050365 -143.63601615 19.38979286 -140.5625 14.625 C-139.77596273 13.44232711 -138.986864 12.26135404 -138.1953125 11.08203125 C-137.80504883 10.49631348 -137.41478516 9.9105957 -137.01269531 9.30712891 C-125.59299538 -7.57736305 -109.49628138 -17.89566478 -89.609375 -22.05859375 C-58.39870691 -27.32085756 -24.5390328 -20.57044626 0 0 Z M-126.12109375 36.0703125 C-144.20849307 57.88460506 -149.1021829 84.89982007 -149.125 112.5 C-149.12567474 113.23387939 -149.12634949 113.96775879 -149.12704468 114.72387695 C-149.11023175 126.25220248 -148.57299093 137.37894529 -145.875 148.625 C-145.70871094 149.33962402 -145.54242187 150.05424805 -145.37109375 150.79052734 C-140.03780517 172.93848963 -128.68270282 193.15924722 -109.27734375 205.76171875 C-92.73221845 214.82259678 -71.26901005 216.6029341 -53.0625 212 C-34.83345578 206.58207974 -20.90073865 194.35378891 -11.71875 177.83203125 C5.62408386 145.24173935 7.59915952 105.5811793 -2.5 70.375 C-7.21790432 55.11312464 -14.36768631 42.68576121 -25.875 31.625 C-26.55304688 30.93921875 -27.23109375 30.2534375 -27.9296875 29.546875 C-41.30322664 16.78374636 -59.09542011 14.0248745 -76.80859375 14.22485352 C-96.18851907 14.75256841 -112.78865896 21.55534871 -126.12109375 36.0703125 Z " fill="#FEFEFE" transform="translate(1995.875,112.375)"/>
<path d="M0 0 C7.93242581 7.45921157 14.08385882 15.32738538 19.3984375 24.80859375 C20.02234375 25.9171875 20.64625 27.02578125 21.2890625 28.16796875 C34.92002501 53.88900235 37.39717527 82.17232089 37.5234375 110.80859375 C37.52827148 111.87916016 37.53310547 112.94972656 37.53808594 114.05273438 C37.53583008 115.04466797 37.53357422 116.03660156 37.53125 117.05859375 C37.53012207 117.950625 37.52899414 118.84265625 37.52783203 119.76171875 C37.3984375 121.80859375 37.3984375 121.80859375 36.3984375 122.80859375 C33.91951779 122.90630882 31.46848973 122.93855332 28.98912048 122.92884827 C27.81177577 122.9301299 27.81177577 122.9301299 26.61064631 122.93143743 C23.96037891 122.93309462 21.31017375 122.92756699 18.65991211 122.92211914 C16.76816306 122.92183729 14.8764139 122.92199495 12.98466492 122.92256165 C7.8319864 122.92284972 2.67933095 122.9169514 -2.47334218 122.90998769 C-7.85189146 122.90375579 -13.2304412 122.90315048 -18.60899353 122.90196228 C-28.80168074 122.89884848 -38.99435729 122.89063444 -49.18703979 122.88061279 C-60.78780818 122.86945316 -72.38857707 122.86394158 -83.98934948 122.85891736 C-107.86009308 122.84845186 -131.73082719 122.83085148 -155.6015625 122.80859375 C-155.2715625 123.79859375 -154.9415625 124.78859375 -154.6015625 125.80859375 C-154.39241002 127.65576223 -154.18663337 129.50345591 -154.00732422 131.35375977 C-151.67032817 154.96160245 -142.9316631 176.62324046 -124.7109375 192.453125 C-105.14568528 207.27454094 -80.93146231 210.14249142 -57.00439453 207.52441406 C-40.87116718 204.90403792 -26.5927456 196.71838822 -16.3515625 183.99609375 C-12.78490607 178.97220341 -10.21502881 173.36916037 -7.6015625 167.80859375 C0.72879025 169.27173923 8.78116722 171.51759059 16.8984375 173.87109375 C18.18480411 174.23925291 19.47126196 174.60709348 20.7578125 174.97460938 C30.11695254 177.66785127 30.11695254 177.66785127 32.3984375 178.80859375 C29.80647321 196.66434773 16.8992738 212.43067168 3.21875 223.5859375 C-24.84614602 244.42199666 -60.40944426 250.37258122 -94.5390625 245.55859375 C-124.39257365 241.00034519 -151.41028065 226.74811614 -170.11328125 202.6796875 C-187.08599295 179.01267765 -196.53940948 150.52311792 -196.83984375 121.33984375 C-196.84959229 120.55014191 -196.85934082 119.76044006 -196.86938477 118.94680786 C-197.0432158 101.20887156 -196.74826244 84.15852567 -192.6015625 66.80859375 C-192.4355957 66.06174316 -192.26962891 65.31489258 -192.09863281 64.54541016 C-187.87474633 45.94260473 -178.82718515 27.44848189 -166.6015625 12.80859375 C-166.14168945 12.25526367 -165.68181641 11.70193359 -165.20800781 11.13183594 C-146.26798118 -11.27048399 -120.90750721 -24.21597625 -91.8515625 -27.87890625 C-58.60168417 -30.42409238 -25.23975787 -22.81830595 0 0 Z M-132.6015625 32.80859375 C-133.26671875 33.46472656 -133.931875 34.12085938 -134.6171875 34.796875 C-146.98233921 47.80256385 -155.6015625 68.80718566 -155.6015625 86.80859375 C-106.1015625 86.80859375 -56.6015625 86.80859375 -5.6015625 86.80859375 C-5.6015625 65.3389762 -11.07533449 46.12538112 -25.6015625 29.80859375 C-41.23388177 14.55375946 -58.91519838 9.133614 -80.32641602 9.34033203 C-101.52635215 9.95203802 -117.93761957 17.7669432 -132.6015625 32.80859375 Z " fill="#FEFEFE" transform="translate(2539.6015625,117.19140625)"/>
<path d="M0 0 C7.93242581 7.45921157 14.08385882 15.32738538 19.3984375 24.80859375 C20.02234375 25.9171875 20.64625 27.02578125 21.2890625 28.16796875 C34.81658948 53.693824 37.40345462 81.80415116 37.5234375 110.24609375 C37.52827148 111.36814209 37.53310547 112.49019043 37.53808594 113.64624023 C37.53583008 114.68852783 37.53357422 115.73081543 37.53125 116.8046875 C37.53012207 117.74497803 37.52899414 118.68526855 37.52783203 119.65405273 C37.3984375 121.80859375 37.3984375 121.80859375 36.3984375 122.80859375 C33.91951779 122.90630882 31.46848973 122.93855332 28.98912048 122.92884827 C27.81177577 122.9301299 27.81177577 122.9301299 26.61064631 122.93143743 C23.96037891 122.93309462 21.31017375 122.92756699 18.65991211 122.92211914 C16.76816306 122.92183729 14.8764139 122.92199495 12.98466492 122.92256165 C7.8319864 122.92284972 2.67933095 122.9169514 -2.47334218 122.90998769 C-7.85189146 122.90375579 -13.2304412 122.90315048 -18.60899353 122.90196228 C-28.80168074 122.89884848 -38.99435729 122.89063444 -49.18703979 122.88061279 C-60.78780818 122.86945316 -72.38857707 122.86394158 -83.98934948 122.85891736 C-107.86009308 122.84845186 -131.73082719 122.83085148 -155.6015625 122.80859375 C-155.28587085 124.87401402 -154.96959514 126.93934502 -154.65307617 129.00463867 C-154.4770134 130.15477951 -154.30095062 131.30492035 -154.11955261 132.48991394 C-150.78881233 153.82943424 -144.40646137 176.73486854 -126.6015625 190.80859375 C-105.09391286 206.24033237 -81.09441773 211.40539266 -54.79296875 207.15234375 C-38.16081017 203.7467486 -24.28511263 194.80863718 -14.140625 181.2265625 C-11.44499464 176.99154932 -9.48468952 172.45132628 -7.6015625 167.80859375 C0.72879025 169.27173923 8.78116722 171.51759059 16.8984375 173.87109375 C18.18480411 174.23925291 19.47126196 174.60709348 20.7578125 174.97460938 C30.11695254 177.66785127 30.11695254 177.66785127 32.3984375 178.80859375 C31.82914114 183.98037055 30.17019113 187.92974441 27.8359375 192.49609375 C27.47806152 193.19943848 27.12018555 193.9027832 26.75146484 194.62744141 C14.92775743 217.30637911 -5.31141506 232.31247435 -29.1640625 240.68359375 C-63.44594117 251.25991802 -102.38474235 249.30340278 -134.54296875 233.01953125 C-161.23557131 218.8314009 -180.40796443 193.27561165 -189.63427734 164.77099609 C-192.31172348 155.95352757 -194.15210929 146.90356848 -195.6015625 137.80859375 C-195.75842529 136.83684204 -195.75842529 136.83684204 -195.91845703 135.84545898 C-197.03229463 127.62916323 -196.84551235 119.2724871 -196.8515625 110.99609375 C-196.85223724 110.1684552 -196.85291199 109.34081665 -196.85360718 108.48809814 C-196.83746709 96.028251 -196.38014438 84.0018243 -193.6015625 71.80859375 C-193.42995605 71.01936523 -193.25834961 70.23013672 -193.08154297 69.41699219 C-190.53173618 57.93716504 -186.78661556 47.35341361 -181.6015625 36.80859375 C-181.0446875 35.66648438 -180.4878125 34.524375 -179.9140625 33.34765625 C-166.18624464 6.59112237 -143.3947994 -13.65619093 -114.78515625 -22.94140625 C-75.88895691 -34.90120425 -30.62876882 -27.69030597 0 0 Z M-132.6015625 32.80859375 C-133.26671875 33.46472656 -133.931875 34.12085938 -134.6171875 34.796875 C-146.98233921 47.80256385 -155.6015625 68.80718566 -155.6015625 86.80859375 C-106.1015625 86.80859375 -56.6015625 86.80859375 -5.6015625 86.80859375 C-5.6015625 65.3389762 -11.07533449 46.12538112 -25.6015625 29.80859375 C-41.23388177 14.55375946 -58.91519838 9.133614 -80.32641602 9.34033203 C-101.52635215 9.95203802 -117.93761957 17.7669432 -132.6015625 32.80859375 Z " fill="#FEFEFE" transform="translate(2271.6015625,117.19140625)"/>
<path d="M0 0 C31.21310719 -0.83936162 60.56881029 8.3560981 83.66015625 29.78515625 C106.17555496 51.65211148 115.30146991 79.75550931 119.1015625 110.15625 C119.1015625 123.68625 119.1015625 137.21625 119.1015625 151.15625 C55.7415625 151.15625 -7.6184375 151.15625 -72.8984375 151.15625 C-68.31969782 179.77337297 -62.94565166 205.09643422 -38.8984375 223.15625 C-18.98645554 236.19049145 6.75559837 239.90979725 30 235.08007812 C45.91424127 231.03656172 60.39246134 222.40079681 69.1015625 208.15625 C71.2147878 204.20734282 73.19659761 200.20936678 75.1015625 196.15625 C83.43191525 197.61939548 91.48429222 199.86524684 99.6015625 202.21875 C100.88792911 202.58690916 102.17438696 202.95474973 103.4609375 203.32226562 C112.82007754 206.01550752 112.82007754 206.01550752 115.1015625 207.15625 C113.20161991 220.69334092 105.10688182 232.24380145 96.1015625 242.15625 C95.29332031 243.08630859 95.29332031 243.08630859 94.46875 244.03515625 C75.1152047 264.99339249 45.35520463 273.89686869 17.67333984 275.27734375 C-14.47424702 276.51880298 -46.07169355 269.46122269 -70.8984375 248.15625 C-71.6925 247.52332031 -72.4865625 246.89039063 -73.3046875 246.23828125 C-98.54056266 225.4009125 -110.52419437 190.73116783 -113.8984375 159.15625 C-114.30936037 153.19091938 -114.33349128 147.22654561 -114.28955078 141.24951172 C-114.27344025 138.65669201 -114.28953283 136.06543006 -114.30859375 133.47265625 C-114.32881437 118.17530643 -112.55854825 103.15900193 -108.1484375 88.46875 C-107.89239746 87.59992188 -107.63635742 86.73109375 -107.37255859 85.8359375 C-102.22686953 68.93797847 -94.31572008 53.72037204 -82.8984375 40.15625 C-82.23328125 39.35703125 -81.568125 38.5578125 -80.8828125 37.734375 C-62.16588312 16.05505392 -37.11749595 3.95184598 -8.8984375 0.40625 C-5.93445245 0.2039302 -2.96872439 0.11898695 0 0 Z M-49.8984375 61.15625 C-50.98898437 62.19845703 -50.98898437 62.19845703 -52.1015625 63.26171875 C-65.87007889 77.27416555 -70.3903765 96.34579246 -72.8984375 115.15625 C-23.3984375 115.15625 26.1015625 115.15625 77.1015625 115.15625 C77.16712944 104.5764214 77.16712944 104.5764214 75.6015625 94.40625 C75.42995605 93.65037598 75.25834961 92.89450195 75.08154297 92.11572266 C71.68375135 78.43041083 64.4417215 65.75782621 54.1015625 56.15625 C53.59753906 55.63546875 53.09351563 55.1146875 52.57421875 54.578125 C48.29339429 50.41907454 43.62682707 47.60291277 38.3515625 44.90625 C37.72080811 44.57713623 37.09005371 44.24802246 36.44018555 43.90893555 C26.67526334 39.11764962 16.64131692 37.61063284 5.8515625 37.71875 C4.76182129 37.72777344 3.67208008 37.73679688 2.54931641 37.74609375 C-18.74663178 38.19993666 -35.1681678 46.0991252 -49.8984375 61.15625 Z " fill="#FEFEFE" transform="translate(725.8984375,88.84375)"/>
<path d="M0 0 C17.40141888 16.33711192 24.80215972 38.16230536 25.82115746 61.63800621 C25.95315262 66.560707 25.92731581 71.48115859 25.89526367 76.4050293 C25.89441461 78.26987698 25.89489796 80.13472565 25.89659119 81.99957275 C25.89744169 86.99631311 25.87997154 91.99283142 25.85886931 96.98952079 C25.83994249 102.23582528 25.8383396 107.48213649 25.83479309 112.72846985 C25.82551916 122.63373152 25.80096927 132.53889225 25.77074462 142.44410974 C25.73705461 153.73331765 25.72067812 165.02253074 25.70565832 176.31177652 C25.67441485 199.5073988 25.61946192 222.70288295 25.5546875 245.8984375 C12.0246875 245.8984375 -1.5053125 245.8984375 -15.4453125 245.8984375 C-15.4453125 234.0184375 -15.4453125 222.1384375 -15.4453125 209.8984375 C-16.1053125 209.8984375 -16.7653125 209.8984375 -17.4453125 209.8984375 C-17.6515625 210.5584375 -17.8578125 211.2184375 -18.0703125 211.8984375 C-19.97604511 216.05639956 -22.57664248 219.35442184 -25.4453125 222.8984375 C-26.38697266 224.09726562 -26.38697266 224.09726562 -27.34765625 225.3203125 C-39.57467341 239.98362545 -59.57804783 249.9205172 -78.4453125 251.8984375 C-95.80163449 252.9391022 -113.79617019 253.47693643 -130.4453125 247.8984375 C-131.10466797 247.67881348 -131.76402344 247.45918945 -132.44335938 247.23291016 C-145.75208397 242.68179015 -156.44035789 235.73148568 -166.4453125 225.8984375 C-167.38503906 224.97804688 -167.38503906 224.97804688 -168.34375 224.0390625 C-185.51440775 205.85836606 -187.24063297 183.13715637 -186.62011719 159.30566406 C-185.77684077 142.8688404 -177.46461495 128.84899213 -165.4453125 117.8984375 C-139.91259598 97.76370861 -104.3934952 94.11667638 -73.15625 90.39453125 C-72.07304474 90.26507111 -70.98983948 90.13561096 -69.87380981 90.00222778 C-64.43128782 89.35586145 -58.98742088 88.72852943 -53.53955078 88.12890625 C-34.66848855 86.59511106 -34.66848855 86.59511106 -18.4453125 77.8984375 C-16.18605304 73.21997101 -16.25453255 68.8492667 -16.6328125 63.7734375 C-16.68469727 63.02642578 -16.73658203 62.27941406 -16.79003906 61.50976562 C-17.98066185 46.67473304 -22.62846269 35.28990558 -33.4453125 24.8984375 C-46.73379892 13.78700099 -66.1088507 14.09429621 -82.4453125 14.8984375 C-102.41825876 16.72045933 -118.40432143 25.77620168 -131.4453125 40.8984375 C-134.40904786 45.06062323 -137.15837498 49.32456246 -139.4453125 53.8984375 C-148.16617218 51.69402923 -156.60361409 48.86227559 -165.0703125 45.8359375 C-166.36061094 45.3845765 -167.65097518 44.93340354 -168.94140625 44.48242188 C-170.15183594 44.05123047 -171.36226562 43.62003906 -172.609375 43.17578125 C-174.25607178 42.59171509 -174.25607178 42.59171509 -175.93603516 41.99584961 C-178.4453125 40.8984375 -178.4453125 40.8984375 -179.4453125 38.8984375 C-170.03581469 15.08427638 -151.68124476 -2.74202254 -128.32421875 -12.9921875 C-88.67700967 -29.13534704 -33.73145961 -28.98965698 0 0 Z M-19.9453125 115.6484375 C-35.56404478 122.57306589 -53.69118294 123.60769407 -70.43261719 125.75024414 C-107.64310309 129.71256892 -107.64310309 129.71256892 -138.359375 149.0625 C-145.45079332 158.94856594 -146.85826547 169.9850592 -144.9765625 181.85546875 C-142.60017175 191.96927461 -137.01538725 200.02060663 -128.4453125 205.8984375 C-110.12830865 216.47551173 -87.11731527 217.67946013 -66.765625 212.87109375 C-49.34701476 207.76846558 -33.76145158 197.7447889 -24.4453125 181.8984375 C-15.7650425 165.27792051 -15.29025523 150.10326888 -15.3828125 131.7734375 C-15.38783735 130.03645962 -15.39239852 128.29948034 -15.39648438 126.5625 C-15.40741236 122.34111062 -15.42462272 118.11978986 -15.4453125 113.8984375 C-16.94842779 113.8239019 -16.94842779 113.8239019 -19.9453125 115.6484375 Z " fill="#FEFEFE" transform="translate(1066.4453125,112.1015625)"/>
<path d="M0 0 C2.07309679 0.01611595 4.14424558 0.0000116 6.21728516 -0.01904297 C19.22762294 -0.0410887 31.93354123 1.82717335 44.13525391 6.51611328 C44.92625488 6.81614258 45.71725586 7.11617188 46.53222656 7.42529297 C71.23807811 17.17642569 90.7984008 36.0404729 101.88525391 60.14111328 C112.64551881 87.2066264 110.77796693 116.41030958 99.62353516 143.01513672 C91.36630481 161.68599307 78.692486 177.89866368 65.57275391 193.39111328 C64.69206183 194.44539687 63.81188026 195.50010707 62.93212891 196.55517578 C57.70047073 202.80760045 52.34414073 208.91229064 46.83056641 214.91845703 C44.9209424 217.00979267 43.04944139 219.12370192 41.19775391 221.26611328 C32.53933011 231.21323271 23.38693164 240.73933904 14.36181641 250.35205078 C10.757937 254.19140572 7.16392524 258.03987409 3.57275391 261.89111328 C-1.25268322 267.0652131 -6.08669814 272.23114781 -10.92724609 277.39111328 C-16.36110097 283.18390684 -21.78858636 288.98254986 -27.20385742 294.79272461 C-30.23290893 298.04247832 -33.26724389 301.28705015 -36.31005859 304.52392578 C-36.9467749 305.20253662 -37.58349121 305.88114746 -38.23950195 306.58032227 C-39.45746963 307.87820867 -40.67694877 309.17467895 -41.89819336 310.46948242 C-42.44789795 311.05592529 -42.99760254 311.64236816 -43.56396484 312.24658203 C-44.04567139 312.75858154 -44.52737793 313.27058105 -45.02368164 313.7980957 C-46.59232049 315.57846942 -48.00354352 317.49284318 -49.42724609 319.39111328 C4.69275391 319.39111328 58.81275391 319.39111328 114.57275391 319.39111328 C114.57275391 332.26111328 114.57275391 345.13111328 114.57275391 358.39111328 C40.98275391 358.39111328 -32.60724609 358.39111328 -108.42724609 358.39111328 C-108.42724609 326.39111328 -108.42724609 326.39111328 -102.98974609 318.51611328 C-99.64990234 315.77392578 -99.64990234 315.77392578 -97.97851562 314.56787109 C-95.6334165 312.78893219 -93.82934944 310.62599713 -91.92724609 308.39111328 C-87.95194556 303.95490833 -83.91516942 299.5785693 -79.86865234 295.20751953 C-76.86313887 291.95728231 -73.88165001 288.68805678 -70.92724609 285.39111328 C-66.95194556 280.95490833 -62.91516942 276.5785693 -58.86865234 272.20751953 C-55.86313887 268.95728231 -52.88165001 265.68805678 -49.92724609 262.39111328 C-45.49353895 257.44520892 -40.98781189 252.56824674 -36.47802734 247.69189453 C-30.27407848 240.98327109 -24.09037816 234.25647638 -17.98974609 227.45361328 C-13.99207236 222.99824524 -9.93523724 218.60027809 -5.86889648 214.20776367 C-2.13130615 210.16588868 1.55837676 206.08381383 5.22900391 201.98095703 C6.96518848 200.06247308 8.71304861 198.16071841 10.47900391 196.27001953 C16.02217848 190.33209973 21.35507427 184.32727821 26.43994141 177.98486328 C28.50828758 175.46951189 30.66795626 173.0878043 32.88525391 170.70361328 C54.01446381 147.36577516 68.10068812 122.04997132 66.76806641 89.97265625 C65.79771441 77.14702879 58.91394906 64.13685377 49.57275391 55.39111328 C31.78978644 40.62433817 10.92303033 37.69595306 -11.42724609 39.39111328 C-26.22561402 41.33414728 -40.85581785 48.63540189 -50.64990234 59.96142578 C-61.33904684 73.98718173 -63.97979595 88.02171153 -65.42724609 105.39111328 C-79.28724609 105.39111328 -93.14724609 105.39111328 -107.42724609 105.39111328 C-107.42724609 79.73837317 -100.53164695 55.89080499 -83.42724609 36.39111328 C-82.82525391 35.64603516 -82.22326172 34.90095703 -81.60302734 34.13330078 C-61.92091099 10.44874148 -30.03533187 -0.27607305 0 0 Z " fill="#FEFEFE" transform="translate(1634.42724609375,-0.39111328125)"/>
<path d="M0 0 C13.86 0 27.72 0 42 0 C42 21.12 42 42.24 42 64 C60.48 64 78.96 64 98 64 C98 75.55 98 87.1 98 99 C79.52 99 61.04 99 42 99 C42.06293485 120.45383087 42.13816482 141.9075043 42.23571491 163.36120319 C42.28062021 173.3232295 42.32004698 183.28522047 42.34643555 193.24731445 C42.36945831 201.93346211 42.40290402 210.61949748 42.44870156 219.305556 C42.47257615 223.90186949 42.49134263 228.49807216 42.49761391 233.09444618 C42.50369092 237.42748559 42.52378457 241.76024166 42.55427551 246.09317589 C42.56301399 247.67690432 42.56678708 249.26066985 42.56500816 250.84442139 C42.55558834 263.10883908 43.07772548 275.62500965 52 285 C64.57694623 294.16928879 80.40053047 292.03812979 95 291 C95.98441596 294.98214854 96.96276688 298.96573576 97.93579102 302.95068359 C98.26685445 304.30296897 98.59950354 305.65486726 98.93383789 307.00634766 C100.65561877 313.97068108 102.35155884 320.83974836 103 328 C79.75152824 336.66892167 56.28545517 333.7876426 34.13671875 323.6953125 C19.26362085 316.24824509 8.61904118 303.54313626 3 288 C0.07099752 277.05875374 -0.41972034 266.58345224 -0.34057617 255.32446289 C-0.33972764 253.6079866 -0.34020944 251.89150923 -0.34190369 250.17503357 C-0.34275626 245.56440053 -0.32525169 240.9540068 -0.30418181 236.34342885 C-0.28529036 231.5068329 -0.28365483 226.67023006 -0.28010559 221.83360291 C-0.27082146 212.6967306 -0.24625741 203.55996736 -0.21605712 194.42314285 C-0.18239933 184.01188396 -0.16599863 173.60061957 -0.15097082 163.18931973 C-0.11970417 141.79280562 -0.0647381 120.39644082 0 99 C-13.2 99 -26.4 99 -40 99 C-40 87.45 -40 75.9 -40 64 C-26.8 64 -13.6 64 0 64 C0 42.88 0 21.76 0 0 Z " fill="#FEFEFE" transform="translate(322,29)"/>
<path d="M0 0 C2.22398722 2.77972917 3.77183546 5.43369175 5.1628418 8.70605469 C5.76850227 10.11960236 5.76850227 10.11960236 6.38639832 11.56170654 C7.03624443 13.10123993 7.03624443 13.10123993 7.69921875 14.671875 C8.16205765 15.75607727 8.62489655 16.84027954 9.10176086 17.95733643 C10.36959281 20.92974217 11.63262637 23.90413297 12.89373779 26.87939453 C14.23427362 30.03854424 15.58120677 33.19496315 16.92773438 36.3515625 C18.89111144 40.95548081 20.85277987 45.56011939 22.81221199 50.16571808 C27.6942697 61.64016246 32.6082837 73.10085692 37.52471924 84.56060791 C40.00113656 90.33399721 42.47497863 96.1084899 44.94921875 101.8828125 C48.57549643 110.34474512 52.20318192 118.80607249 55.83230591 127.26678467 C57.71449453 131.6548204 59.5962663 136.04303485 61.47795296 140.43128586 C62.74740842 143.39167587 64.01715885 146.35193879 65.28735352 149.31201172 C68.05886958 155.77085736 70.8264451 162.23136142 73.58746338 168.69470215 C74.57497605 171.00545535 75.56363573 173.31571855 76.55316162 175.62561035 C78.10621639 179.25115132 79.65292776 182.87938138 81.19921875 186.5078125 C81.68074905 187.63041473 82.16227936 188.75301697 82.65840149 189.90963745 C83.09685898 190.94121979 83.53531647 191.97280212 83.98706055 193.03564453 C84.37669479 193.94814972 84.76632904 194.86065491 85.16777039 195.80081177 C86 198 86 198 86 200 C31.22 200 -23.56 200 -80 200 C-73.10662206 181.61765883 -73.10662206 181.61765883 -70.49365234 175.07470703 C-70.18900684 174.30807613 -69.88436134 173.54144524 -69.57048416 172.7515831 C-68.57715174 170.25305317 -67.58158131 167.75542215 -66.5859375 165.2578125 C-65.86262108 163.43999973 -65.13942935 161.62213735 -64.41635132 159.80422974 C-62.47435635 154.9231937 -60.53025722 150.04299853 -58.58555603 145.16304016 C-57.37016872 142.11287531 -56.15527901 139.06251274 -54.94055176 136.01208496 C-49.40156021 122.10281296 -43.85761405 108.19552037 -38.31159973 94.28904724 C-36.99900422 90.99750293 -35.68665696 87.70585974 -34.37438965 84.41418457 C-29.30366691 71.69513996 -24.2296535 58.9774163 -19.1506958 46.26165771 C-17.54966955 42.253165 -15.94975908 38.2442297 -14.35076904 34.23492432 C-12.4748617 29.53160472 -10.59642817 24.82930227 -8.71596146 20.1278038 C-8.02522287 18.3996589 -7.33536655 16.67116107 -6.64643478 14.94229507 C-5.71036686 12.59370316 -4.77114399 10.2463986 -3.83105469 7.89941406 C-3.55606833 7.20733919 -3.28108196 6.51526432 -2.99776268 5.80221748 C-1.11417229 1.11417229 -1.11417229 1.11417229 0 0 Z " fill="#035027" transform="translate(1230,157)"/>
<path d="M0 0 C8.1984375 0.12375 8.1984375 0.12375 16.5625 0.25 C16.5625 14.11 16.5625 27.97 16.5625 42.25 C12.6025 41.92 8.6425 41.59 4.5625 41.25 C-17.7102565 40.34424124 -37.37232648 42.01646347 -55.125 57.06640625 C-65.42074509 66.78823311 -72.70845314 79.72045775 -73.69921303 94.02989197 C-73.70750916 95.99884178 -73.70750916 95.99884178 -73.7159729 98.00756836 C-73.7217653 98.74535963 -73.7275577 99.4831509 -73.73352563 100.24329948 C-73.75040301 102.6921931 -73.75339145 105.14089687 -73.75634766 107.58984375 C-73.76565432 109.35455277 -73.77582408 111.11925741 -73.78678894 112.88395691 C-73.81401978 117.65811505 -73.82921781 122.43224379 -73.84221697 127.20645905 C-73.85787782 132.2019639 -73.88465861 137.19740901 -73.9102478 142.19287109 C-73.95698332 151.64510381 -73.99375272 161.09734784 -74.02692068 170.54963684 C-74.06517902 181.31386254 -74.11457945 192.07802815 -74.16490483 202.84220314 C-74.26814696 224.97809652 -74.35596172 247.11401529 -74.4375 269.25 C-88.2975 269.25 -102.1575 269.25 -116.4375 269.25 C-116.4375 181.8 -116.4375 94.35 -116.4375 4.25 C-103.2375 4.25 -90.0375 4.25 -76.4375 4.25 C-76.4375 17.45 -76.4375 30.65 -76.4375 44.25 C-73.54225286 42.80237643 -73.19638597 40.803884 -71.875 37.875 C-65.20567354 24.27797124 -55.04977845 14.90543716 -41.75 8 C-41.15179443 7.68264893 -40.55358887 7.36529785 -39.93725586 7.03833008 C-26.89297646 0.61494673 -14.23588418 -0.30662948 0 0 Z " fill="#FDFDFD" transform="translate(2739.4375,88.75)"/>
<path d="M0 0 C8.1984375 0.12375 8.1984375 0.12375 16.5625 0.25 C16.5625 14.11 16.5625 27.97 16.5625 42.25 C12.6025 41.92 8.6425 41.59 4.5625 41.25 C-17.68404179 40.09835824 -37.4322235 42.11994311 -55.12109375 57.0546875 C-66.16288566 67.51925251 -73.25925496 80.84001369 -73.79432619 96.18924749 C-73.86958823 100.1032699 -73.87394281 104.01580069 -73.86987305 107.93041992 C-73.87890399 109.69557373 -73.88923445 111.46072129 -73.90075684 113.2258606 C-73.92819659 117.9874709 -73.93759356 122.74896178 -73.94361091 127.51064086 C-73.95302865 132.49813372 -73.97923468 137.48553857 -74.00361633 142.47297668 C-74.04719176 151.90386488 -74.07579366 161.33473591 -74.09893972 170.76569396 C-74.12603952 181.50823815 -74.16994801 192.25069341 -74.21522844 202.99317396 C-74.30794643 225.07874724 -74.37746742 247.16431202 -74.4375 269.25 C-88.2975 269.25 -102.1575 269.25 -116.4375 269.25 C-116.4375 181.8 -116.4375 94.35 -116.4375 4.25 C-103.2375 4.25 -90.0375 4.25 -76.4375 4.25 C-76.4375 17.45 -76.4375 30.65 -76.4375 44.25 C-73.52842182 42.79546091 -73.1511722 40.74785664 -71.8125 37.8125 C-65.15508566 24.27308384 -55.01836587 14.82706299 -41.6875 7.9375 C-41.09324219 7.62409668 -40.49898437 7.31069336 -39.88671875 6.98779297 C-26.84880018 0.62194077 -14.21009106 -0.30607392 0 0 Z " fill="#FDFDFD" transform="translate(582.4375,88.75)"/>
</svg>
