<svg width="919" height="153" viewBox="0 0 919 153" fill="none" xmlns="http://www.w3.org/2000/svg">
<path d="M383.616 118.776L410.075 52.3753L438.569 118.776H383.616Z" fill="#035127"/>
<path d="M446.964 118.776H489.197L445.727 7.12349L418.725 43.7254L446.964 118.776Z" fill="#035127"/>
<path d="M508.756 119.285V108.943L547.598 66.4228C552.157 61.443 555.911 57.1144 558.86 53.437C561.81 49.7213 563.993 46.2355 565.411 42.9795C566.866 39.6851 567.594 36.2376 567.594 32.6368C567.594 28.4998 566.598 24.9181 564.606 21.892C562.652 18.8658 559.971 16.5291 556.562 14.8819C553.153 13.2348 549.322 12.4112 545.07 12.4112C540.55 12.4112 536.604 13.3497 533.233 15.2267C529.901 17.0654 527.315 19.651 525.476 22.9837C523.676 26.3163 522.776 30.2235 522.776 34.7053H509.215C509.215 27.8102 510.805 21.7579 513.985 16.5482C517.164 11.3386 521.493 7.27816 526.97 4.3669C532.487 1.45563 538.673 0 545.53 0C552.425 0 558.535 1.45563 563.859 4.3669C569.184 7.27816 573.359 11.2045 576.385 16.146C579.411 21.0875 580.924 26.5844 580.924 32.6368C580.924 36.9654 580.139 41.1982 578.569 45.3353C577.036 49.4341 574.355 54.0116 570.524 59.068C566.732 64.0861 561.465 70.2151 554.723 77.455L528.292 105.725V106.644H582.993V119.285H508.756Z" fill="#FEFEFE"/>
<path fill-rule="evenodd" clip-rule="evenodd" d="M602.099 152.382V31.028H615.2V45.048H616.809C617.805 43.5158 619.184 41.5621 620.946 39.1872C622.746 36.7739 625.313 34.6287 628.646 32.7517C632.016 30.8364 636.575 29.8788 642.321 29.8788C649.752 29.8788 656.302 31.7366 661.972 35.4523C667.641 39.168 672.065 44.4351 675.245 51.2536C678.424 58.0721 680.014 66.1164 680.014 75.3864C680.014 84.7331 678.424 92.8349 675.245 99.6917C672.065 106.51 667.66 111.796 662.029 115.55C656.398 119.266 649.905 121.124 642.551 121.124C636.881 121.124 632.342 120.185 628.933 118.308C625.524 116.393 622.9 114.229 621.061 111.816C619.222 109.364 617.805 107.334 616.809 105.725H615.66V152.382H602.099ZM618.36 92.7966C616.407 87.7019 615.43 81.8219 615.43 75.1566C615.43 68.568 616.388 62.8029 618.303 57.8614C620.218 52.8816 623.053 49.0127 626.807 46.2546C630.561 43.4583 635.196 42.0601 640.712 42.0601C646.458 42.0601 651.227 43.5349 655.019 46.4845C658.85 49.3957 661.704 53.3604 663.581 58.3785C665.496 63.3583 666.454 68.951 666.454 75.1566C666.454 81.4388 665.477 87.1464 663.523 92.2794C661.608 97.3742 658.735 101.435 654.904 104.461C651.112 107.449 646.381 108.943 640.712 108.943C635.273 108.943 630.676 107.525 626.922 104.691C623.168 101.818 620.314 97.853 618.36 92.7966Z" fill="#FEFEFE"/>
<path d="M710.842 115.493C717.009 119.247 724.345 121.124 732.849 121.124C738.825 121.124 744.207 120.205 748.995 118.366C753.783 116.489 757.805 113.884 761.061 110.551C764.317 107.181 766.635 103.273 768.014 98.8298L754.913 95.1524C753.764 98.2169 752.136 100.783 750.029 102.852C747.922 104.882 745.413 106.414 742.502 107.449C739.629 108.445 736.411 108.943 732.849 108.943C727.371 108.943 722.564 107.755 718.427 105.38C714.29 102.967 711.053 99.4618 708.716 94.8651C706.632 90.6624 705.493 85.6252 705.298 79.7533H701.361V68.0317H705.333C705.591 63.9377 706.623 60.0688 708.429 56.4249C710.536 52.1729 713.543 48.7254 717.45 46.0823C721.395 43.4008 726.069 42.0601 731.47 42.0601C736.373 42.0601 740.625 43.1901 744.226 45.4502C747.865 47.7103 750.661 50.7939 752.615 54.7011C754.607 58.6084 755.603 63.0519 755.603 68.0317H705.333C705.29 68.7149 705.268 69.4044 705.268 70.1002V77.9146C705.268 78.4874 705.277 79.0527 705.294 79.6105L705.298 79.7533H769.393V74.0074C769.393 65.7716 768.301 58.8382 766.118 53.2072C763.934 47.5762 761.004 43.0561 757.326 39.6468C753.649 36.1993 749.57 33.7094 745.088 32.1771C740.606 30.6449 736.067 29.8788 731.47 29.8788C723.502 29.8788 716.53 31.8324 710.555 35.7396C704.617 39.6085 699.982 45.0097 696.65 51.9431C693.355 58.8382 691.708 66.8059 691.708 75.8461C691.708 84.8864 693.355 92.8157 696.65 99.6342C699.982 106.414 704.713 111.701 710.842 115.493Z" fill="#FEFEFE"/>
<path d="M701.361 68.0317V79.7533H705.298L705.294 79.6105C705.277 79.0527 705.268 78.4874 705.268 77.9146V70.1002C705.268 69.4044 705.29 68.7149 705.333 68.0317H701.361Z" fill="#FEFEFE"/>
<path d="M800.163 115.493C806.331 119.247 813.666 121.124 822.17 121.124C828.146 121.124 833.528 120.205 838.316 118.366C843.105 116.489 847.127 113.884 850.383 110.551C853.639 107.181 855.956 103.273 857.335 98.8298L844.235 95.1524C843.086 98.2169 841.458 100.783 839.351 102.852C837.244 104.882 834.735 106.414 831.823 107.449C828.951 108.445 825.733 108.943 822.17 108.943C816.693 108.943 811.885 107.755 807.748 105.38C803.611 102.967 800.374 99.4618 798.037 94.8651C795.953 90.6624 794.814 85.6252 794.62 79.7533H790.683V68.0317H794.655C794.913 63.9377 795.945 60.0688 797.75 56.4249C799.857 52.1729 802.864 48.7254 806.771 46.0823C810.717 43.4008 815.39 42.0601 820.791 42.0601C825.694 42.0601 829.946 43.1901 833.547 45.4502C837.186 47.7103 839.983 50.7939 841.936 54.7011C843.928 58.6084 844.924 63.0519 844.924 68.0317H794.655C794.611 68.7149 794.59 69.4044 794.59 70.1002V77.9146C794.59 78.4874 794.598 79.0527 794.615 79.6105L794.62 79.7533H858.714V74.0074C858.714 65.7716 857.623 58.8382 855.439 53.2072C853.256 47.5762 850.325 43.0561 846.648 39.6468C842.971 36.1993 838.891 33.7094 834.409 32.1771C829.927 30.6449 825.388 29.8788 820.791 29.8788C812.824 29.8788 805.852 31.8324 799.876 35.7396C793.939 39.6085 789.304 45.0097 785.971 51.9431C782.677 58.8382 781.03 66.8059 781.03 75.8461C781.03 84.8864 782.677 92.8157 785.971 99.6342C789.304 106.414 794.034 111.701 800.163 115.493Z" fill="#FEFEFE"/>
<path d="M790.683 68.0317V79.7533H794.62L794.615 79.6105C794.598 79.0527 794.59 78.4874 794.59 77.9146V70.1002C794.59 69.4044 794.611 68.7149 794.655 68.0317H790.683Z" fill="#FEFEFE"/>
<path d="M874.488 119.285V31.028H887.589V44.3585H888.508C890.117 39.9916 893.028 36.4483 897.242 33.7285C901.456 31.0088 906.206 29.6489 911.492 29.6489C912.488 29.6489 913.733 29.6681 915.227 29.7064C916.721 29.7447 917.851 29.8022 918.617 29.8788V43.669C918.157 43.5541 917.104 43.3817 915.456 43.1518C913.848 42.8837 912.143 42.7496 910.343 42.7496C906.052 42.7496 902.222 43.6498 898.851 45.4502C895.518 47.2123 892.875 49.6639 890.921 52.805C889.006 55.9078 888.048 59.4511 888.048 63.4349V119.285H874.488Z" fill="#FEFEFE"/>
<path fill-rule="evenodd" clip-rule="evenodd" d="M323.428 121.354C317.835 121.354 312.76 120.3 308.201 118.194C303.643 116.048 300.023 112.965 297.341 108.943C294.66 104.882 293.319 99.979 293.319 94.2331C293.319 89.1767 294.315 85.0779 296.307 81.9368C298.299 78.7574 300.961 76.2675 304.294 74.4671C307.627 72.6667 311.304 71.326 315.326 70.445C319.387 69.5256 323.466 68.7978 327.565 68.2615C332.928 67.572 337.276 67.0549 340.608 66.7101C343.979 66.327 346.431 65.695 347.963 64.8139C349.534 63.9329 350.319 62.4007 350.319 60.2172V59.7575C350.319 54.0882 348.767 49.683 345.665 46.5419C342.6 43.4008 337.946 41.8303 331.702 41.8303C325.228 41.8303 320.153 43.2476 316.475 46.0823C312.798 48.9169 310.212 51.9431 308.718 55.1608L295.848 50.5641C298.146 45.2012 301.21 41.0259 305.041 38.038C308.91 35.0118 313.124 32.905 317.682 31.7175C322.279 30.4917 326.799 29.8788 331.242 29.8788C334.077 29.8788 337.333 30.2235 341.01 30.913C344.726 31.5642 348.308 32.9241 351.755 34.9926C355.241 37.0612 358.133 40.1831 360.432 44.3585C362.73 48.5339 363.879 54.1265 363.879 61.1366V119.285H350.319V107.334H349.629C348.71 109.249 347.178 111.298 345.033 113.482C342.887 115.665 340.034 117.523 336.471 119.055C332.909 120.588 328.561 121.354 323.428 121.354ZM339.057 106.012C335.379 108.119 330.859 109.172 325.496 109.172C320.095 109.172 315.633 107.985 312.108 105.61C308.623 103.197 306.88 99.6342 306.88 94.9226C306.88 91.475 307.799 88.7553 309.638 86.7634C311.515 84.7331 313.966 83.22 316.992 82.2241C320.057 81.1898 323.351 80.4428 326.875 79.9832C328.331 79.7916 330.227 79.5618 332.564 79.2937C334.939 78.9872 337.371 78.6425 339.861 78.2594C342.389 77.838 344.611 77.3592 346.526 76.8229C348.48 76.2483 349.744 75.6163 350.319 74.9268V87.338C350.319 91.0153 349.361 94.5203 347.446 97.853C345.569 101.186 342.773 103.905 339.057 106.012Z" fill="#FEFEFE"/>
<path d="M223.132 115.493C229.299 119.247 236.635 121.124 245.139 121.124C251.114 121.124 256.496 120.205 261.285 118.366C266.073 116.489 270.095 113.884 273.351 110.551C276.607 107.181 278.925 103.273 280.304 98.8298L267.203 95.1524C266.054 98.2169 264.426 100.783 262.319 102.852C260.212 104.882 257.703 106.414 254.792 107.449C251.919 108.445 248.701 108.943 245.139 108.943C239.661 108.943 234.853 107.755 230.716 105.38C226.579 102.967 223.342 99.4618 221.006 94.8651C218.922 90.6624 217.783 85.6252 217.588 79.7533H213.651V68.0317H217.623C217.881 63.9377 218.913 60.0688 220.719 56.4249C222.825 52.1729 225.832 48.7254 229.74 46.0823C233.685 43.4008 238.358 42.0601 243.76 42.0601C248.663 42.0601 252.915 43.1901 256.516 45.4502C260.155 47.7103 262.951 50.7939 264.905 54.7011C266.897 58.6084 267.892 63.0519 267.892 68.0317H217.623C217.58 68.7149 217.558 69.4044 217.558 70.1002V77.9146C217.558 78.4874 217.567 79.0527 217.584 79.6105L217.588 79.7533H281.683V74.0074C281.683 65.7716 280.591 58.8382 278.408 53.2072C276.224 47.5762 273.294 43.0561 269.616 39.6468C265.939 36.1993 261.859 33.7094 257.377 32.1771C252.896 30.6449 248.356 29.8788 243.76 29.8788C235.792 29.8788 228.82 31.8324 222.844 35.7396C216.907 39.6085 212.272 45.0097 208.939 51.9431C205.645 58.8382 203.998 66.8059 203.998 75.8461C203.998 84.8864 205.645 92.8157 208.939 99.6342C212.272 106.414 217.003 111.701 223.132 115.493Z" fill="#FEFEFE"/>
<path d="M213.651 68.0317V79.7533H217.588L217.584 79.6105C217.567 79.0527 217.558 78.4874 217.558 77.9146V70.1002C217.558 69.4044 217.58 68.7149 217.623 68.0317H213.651Z" fill="#FEFEFE"/>
<path d="M155.472 119.285V31.028H168.573V44.3585H169.492C171.101 39.9916 174.013 36.4483 178.226 33.7285C182.44 31.0088 187.19 29.6489 192.476 29.6489C193.472 29.6489 194.717 29.6681 196.211 29.7064C197.705 29.7447 198.835 29.8022 199.601 29.8788V43.669C199.141 43.5541 198.088 43.3817 196.441 43.1518C194.832 42.8837 193.127 42.7496 191.327 42.7496C187.037 42.7496 183.206 43.6498 179.835 45.4502C176.503 47.2123 173.859 49.6639 171.906 52.805C169.99 55.9078 169.033 59.4511 169.033 63.4349V119.285H155.472Z" fill="#FEFEFE"/>
<path d="M122.748 102.622C121.637 100.707 121.082 97.8338 121.082 94.0032V42.5198H107.522V97.6806C107.522 102.814 108.709 107.066 111.084 110.437C113.497 113.807 116.524 116.317 120.163 117.964C123.84 119.611 127.594 120.434 131.425 120.434C133.953 120.434 136.041 120.243 137.688 119.86C139.335 119.515 140.618 119.17 141.537 118.826L138.779 106.644L136.481 107.104C135.523 107.257 134.298 107.334 132.804 107.334C130.812 107.334 128.916 107.027 127.115 106.414C125.353 105.763 123.897 104.499 122.748 102.622Z" fill="#FEFEFE"/>
<path d="M139.929 42.5198V31.028H121.082V42.5198H139.929Z" fill="#FEFEFE"/>
<path d="M107.522 42.5198H121.082V31.028H107.522V42.5198Z" fill="#FEFEFE"/>
<path d="M94.1911 31.028V42.5198H107.522V31.028H94.1911Z" fill="#FEFEFE"/>
<path d="M121.082 9.88298H107.522V31.028H121.082V9.88298Z" fill="#FEFEFE"/>
<path d="M69.4107 31.028C68.7212 25.2054 65.9248 20.6853 61.0216 17.4676C56.1185 14.2499 50.1044 12.641 42.9795 12.641C37.7698 12.641 33.2114 13.4838 29.3042 15.1692C25.4353 16.8547 22.4091 19.1722 20.2256 22.1218C18.0805 25.0714 17.0079 28.4231 17.0079 32.1771C17.0079 35.3182 17.7549 38.0188 19.2488 40.2789C20.7811 42.5006 22.7347 44.3585 25.1097 45.8524C27.4846 47.3081 29.9745 48.5147 32.5793 49.4724C35.1842 50.3917 37.5783 51.1387 39.7617 51.7133L51.7133 54.931C54.7778 55.7354 58.187 56.8463 61.941 58.2636C65.7333 59.6809 69.3532 61.6154 72.8008 64.067C76.2866 66.4803 79.1596 69.5831 81.4196 73.3754C83.6797 77.1677 84.8097 81.8219 84.8097 87.338C84.8097 93.6968 83.1434 99.4427 79.8108 104.576C76.5165 109.709 71.6899 113.788 65.3311 116.815C59.0106 119.841 51.3302 121.354 42.2899 121.354C33.8626 121.354 26.5653 119.994 20.398 117.274C14.269 114.554 9.44246 110.762 5.91829 105.897C2.43244 101.032 0.459673 95.3822 0 88.9468H14.7095C15.0926 93.3903 16.5865 97.0677 19.1914 99.979C21.8345 102.852 25.1671 104.997 29.1893 106.414C33.2497 107.793 37.6166 108.483 42.2899 108.483C47.7294 108.483 52.6135 107.602 56.942 105.84C61.2706 104.039 64.699 101.55 67.2272 98.3701C69.7554 95.1524 71.0195 91.3984 71.0195 87.1081C71.0195 83.2009 69.9278 80.0215 67.7444 77.5699C65.5609 75.1183 62.688 73.1264 59.1255 71.5941C55.563 70.0619 51.7133 68.7212 47.5762 67.572L33.0965 63.4349C23.903 60.7918 16.6249 57.0187 11.262 52.1155C5.89914 47.2123 3.21771 40.796 3.21771 32.8666C3.21771 26.278 4.99895 20.5321 8.56142 15.6289C12.1622 10.6874 16.9888 6.8568 23.0411 4.13706C29.1318 1.37902 35.9311 0 43.4391 0C51.0238 0 57.7656 1.35987 63.6648 4.0796C69.5639 6.76103 74.2373 10.4384 77.6848 15.1118C81.1707 19.7851 83.0094 25.0905 83.2009 31.028H69.4107Z" fill="#FEFEFE"/>
</svg>
